{
  "accessors": [
    {
      "bufferView": 2,
      "componentType": 5126,
      "count": 78,
      "max": [
        0.72136300802230835,
        2.0987000465393066,
        0.29078200459480286
      ],
      "min": [
        -0.67261099815368652,
        0.49302101135253906,
        -0.28932398557662964
      ],
      "type": "VEC3"
    },
    {
      "bufferView": 2,
      "byteOffset": 936,
      "componentType": 5126,
      "count": 78,
      "max": [
        0.98772561550140381,
        0.54911208152770996,
        0.90057390928268433
      ],
      "min": [
        -0.98740071058273315,
        -0.41523066163063049,
        -0.94409245252609253
      ],
      "type": "VEC3"
    },
    {
      "bufferView": 3,
      "componentType": 5126,
      "count": 78,
      "max": [
        0.94257897138595581,
        0.40877467393875122,
        0.98365676403045654,
        1
      ],
      "min": [
        -0.89245402812957764,
        -0.90935713052749634,
        -0.99474185705184937,
        -1
      ],
      "type": "VEC4"
    },
    {
      "bufferView": 1,
      "componentType": 5126,
      "count": 78,
      "max": [
        0.98802310228347778,
        0.99755197763442993
      ],
      "min": [
        0.002770385704934597,
        0.0068194111809134483
      ],
      "type": "VEC2"
    },
    {
      "bufferView": 0,
      "componentType": 5125,
      "count": 126,
      "max": [
        77
      ],
      "min": [
        0
      ],
      "type": "SCALAR"
    },
    {
      "bufferView": 2,
      "byteOffset": 1872,
      "componentType": 5126,
      "count": 4,
      "max": [
        2.0584299564361572,
        0.011798500083386898,
        1.8617700338363647
      ],
      "min": [
        -2.0584299564361572,
        0.011798500083386898,
        -1.6686400175094604
      ],
      "type": "VEC3"
    },
    {
      "bufferView": 2,
      "byteOffset": 1920,
      "componentType": 5126,
      "count": 4,
      "max": [
        0,
        1,
        0
      ],
      "min": [
        0,
        1,
        0
      ],
      "type": "VEC3"
    },
    {
      "bufferView": 3,
      "byteOffset": 1248,
      "componentType": 5126,
      "count": 4,
      "max": [
        1,
        0,
        0,
        1
      ],
      "min": [
        1,
        0,
        0,
        1
      ],
      "type": "VEC4"
    },
    {
      "bufferView": 3,
      "byteOffset": 1312,
      "componentType": 5126,
      "count": 4,
      "max": [
        1,
        1,
        1,
        1
      ],
      "min": [
        1,
        1,
        1,
        1
      ],
      "type": "VEC4"
    },
    {
      "bufferView": 1,
      "byteOffset": 624,
      "componentType": 5126,
      "count": 4,
      "max": [
        1,
        1
      ],
      "min": [
        0,
        0
      ],
      "type": "VEC2"
    },
    {
      "bufferView": 0,
      "byteOffset": 504,
      "componentType": 5125,
      "count": 6,
      "max": [
        3
      ],
      "min": [
        0
      ],
      "type": "SCALAR"
    },
    {
      "bufferView": 2,
      "byteOffset": 1968,
      "componentType": 5126,
      "count": 2291,
      "max": [
        0.88082700967788696,
        4.1335201263427734,
        0.79584002494812012
      ],
      "min": [
        -1.0145499706268311,
        0,
        -1.079740047454834
      ],
      "type": "VEC3"
    },
    {
      "bufferView": 2,
      "byteOffset": 29460,
      "componentType": 5126,
      "count": 2291,
      "max": [
        0.99984502792358398,
        1,
        1
      ],
      "min": [
        -0.99975126981735229,
        -0.99908304214477539,
        -1
      ],
      "type": "VEC3"
    },
    {
      "bufferView": 3,
      "byteOffset": 1376,
      "componentType": 5126,
      "count": 2291,
      "max": [
        1,
        0.999092698097229,
        0.99785757064819336,
        1
      ],
      "min": [
        -1,
        -1,
        -0.9994887113571167,
        -1
      ],
      "type": "VEC4"
    },
    {
      "bufferView": 1,
      "byteOffset": 656,
      "componentType": 5126,
      "count": 2291,
      "max": [
        2.3478899002075195,
        1.0206799507141113
      ],
      "min": [
        0,
        -0.19515243172645569
      ],
      "type": "VEC2"
    },
    {
      "bufferView": 0,
      "byteOffset": 528,
      "componentType": 5125,
      "count": 4425,
      "max": [
        2290
      ],
      "min": [
        0
      ],
      "type": "SCALAR"
    }
  ],
  "asset": {
    "extras": {
      "author": "Miku (https://sketchfab.com/fellermariah)",
      "license": "CC-BY-4.0 (http://creativecommons.org/licenses/by/4.0/)",
      "source": "https://sketchfab.com/models/decc6b56d3c747fda41d209899bd10f6",
      "title": "3DS - Hatsune Miku Project Mirai 2 - Rin Figure"
    },
    "generator": "Sketchfab-3.19.8",
    "version": "2.0"
  },
  "bufferViews": [
    {
      "buffer": 0,
      "byteLength": 18228,
      "byteOffset": 0,
      "name": "floatBufferViews",
      "target": 34963
    },
    {
      "buffer": 0,
      "byteLength": 18984,
      "byteOffset": 18228,
      "byteStride": 8,
      "name": "floatBufferViews",
      "target": 34962
    },
    {
      "buffer": 0,
      "byteLength": 56952,
      "byteOffset": 37212,
      "byteStride": 12,
      "name": "floatBufferViews",
      "target": 34962
    },
    {
      "buffer": 0,
      "byteLength": 38032,
      "byteOffset": 94164,
      "byteStride": 16,
      "name": "floatBufferViews",
      "target": 34962
    }
  ],
  "buffers": [
    {
      "byteLength": 132196,
      "uri": "scene.bin"
    }
  ],
  "images": [
    {
      "uri": "textures/rin_S003_Diffuse_baseColor.png"
    },
    {
      "uri": "textures/rin_S003_Alpha_baseColor.png"
    },
    {
      "uri": "textures/test_lambert302_baseColor.png"
    }
  ],
  "materials": [
    {
      "doubleSided": true,
      "emissiveFactor": [
        0,
        0,
        0
      ],
      "name": "rin_S003_Diffuse",
      "pbrMetallicRoughness": {
        "baseColorFactor": [
          1,
          1,
          1,
          1
        ],
        "baseColorTexture": {
          "index": 0,
          "texCoord": 0
        },
        "metallicFactor": 0,
        "roughnessFactor": 0.59999999999999998
      }
    },
    {
      "doubleSided": true,
      "emissiveFactor": [
        0,
        0,
        0
      ],
      "name": "rin_S003_Alpha",
      "pbrMetallicRoughness": {
        "baseColorFactor": [
          1,
          1,
          1,
          1
        ],
        "baseColorTexture": {
          "index": 1,
          "texCoord": 0
        },
        "metallicFactor": 0,
        "roughnessFactor": 0.59999999999999998
      }
    },
    {
      "doubleSided": true,
      "emissiveFactor": [
        0,
        0,
        0
      ],
      "name": "test_lambert302",
      "pbrMetallicRoughness": {
        "baseColorFactor": [
          1,
          1,
          1,
          1
        ],
        "baseColorTexture": {
          "index": 2,
          "texCoord": 0
        },
        "metallicFactor": 0,
        "roughnessFactor": 0.59999999999999998
      }
    }
  ],
  "meshes": [
    {
      "name": "rin_S003_Alpha",
      "primitives": [
        {
          "attributes": {
            "NORMAL": 1,
            "POSITION": 0,
            "TANGENT": 2,
            "TEXCOORD_0": 3
          },
          "indices": 4,
          "material": 1,
          "mode": 4
        }
      ]
    },
    {
      "name": "test_lambert302",
      "primitives": [
        {
          "attributes": {
            "COLOR_0": 8,
            "NORMAL": 6,
            "POSITION": 5,
            "TANGENT": 7,
            "TEXCOORD_0": 9
          },
          "indices": 10,
          "material": 2,
          "mode": 4
        }
      ]
    },
    {
      "name": "rin_S003_Diffuse",
      "primitives": [
        {
          "attributes": {
            "NORMAL": 12,
            "POSITION": 11,
            "TANGENT": 13,
            "TEXCOORD_0": 14
          },
          "indices": 15,
          "material": 0,
          "mode": 4
        }
      ]
    }
  ],
  "nodes": [
    {
      "children": [
        1
      ],
      "name": "RootNode (gltf orientation matrix)",
      "rotation": [
        -0.70710678118654746,
        -0,
        -0,
        0.70710678118654757
      ]
    },
    {
      "children": [
        2
      ],
      "name": "RootNode (model correction matrix)"
    },
    {
      "children": [
        3
      ],
      "matrix": [
        1,
        0,
        0,
        0,
        0,
        -4.3711390063094768e-08,
        0.999999999999999,
        0,
        0,
        -0.999999999999999,
        -4.3711390063094768e-08,
        0,
        0,
        0,
        0,
        1
      ],
      "name": "Collada visual scene group"
    },
    {
      "children": [
        4,
        5,
        6
      ],
      "name": "ROOMITEMS003_ALL"
    },
    {
      "mesh": 0,
      "name": "rin_S003_Alpha"
    },
    {
      "mesh": 1,
      "name": "test_lambert302"
    },
    {
      "mesh": 2,
      "name": "rin_S003_Diffuse"
    }
  ],
  "samplers": [
    {
      "magFilter": 9729,
      "minFilter": 9987,
      "wrapS": 10497,
      "wrapT": 10497
    }
  ],
  "scene": 0,
  "scenes": [
    {
      "name": "OSG_Scene",
      "nodes": [
        0
      ]
    }
  ],
  "textures": [
    {
      "sampler": 0,
      "source": 0
    },
    {
      "sampler": 0,
      "source": 1
    },
    {
      "sampler": 0,
      "source": 2
    }
  ]
}

